<?xml version="1.0" encoding="UTF-8" standalone="no"?>
<!-- Created with Inkscape (http://www.inkscape.org/) -->
<svg
   xmlns:svg="http://www.w3.org/2000/svg"
   xmlns="http://www.w3.org/2000/svg"
   xmlns:xlink="http://www.w3.org/1999/xlink"
   version="1.0"
   width="800"
   height="548.57141"
   id="svg2">
  <defs
     id="defs4">
    <linearGradient
       x1="181.69249"
       y1="453.31204"
       x2="181.69249"
       y2="415.83539"
       id="linearGradient3325"
       xlink:href="#linearGradient3092"
       gradientUnits="userSpaceOnUse"
       gradientTransform="matrix(0.588023,0,0,0.483197,268.3458,84.02428)" />
    <linearGradient
       x1="181.15758"
       y1="393.77765"
       x2="181.0789"
       y2="357.53842"
       id="linearGradient3323"
       xlink:href="#linearGradient3102"
       gradientUnits="userSpaceOnUse"
       gradientTransform="matrix(0.588023,0,0,0.483197,268.3458,84.02428)" />
    <linearGradient
       x1="181.15758"
       y1="393.77765"
       x2="181.0789"
       y2="357.53842"
       id="linearGradient10102"
       xlink:href="#linearGradient3102"
       gradientUnits="userSpaceOnUse"
       gradientTransform="matrix(0.588023,0,0,0.483197,268.3458,84.02428)" />
    <linearGradient
       x1="181.69249"
       y1="453.31204"
       x2="181.69249"
       y2="415.83539"
       id="linearGradient10099"
       xlink:href="#linearGradient3092"
       gradientUnits="userSpaceOnUse"
       gradientTransform="matrix(0.588023,0,0,0.483197,268.3458,84.02428)" />
    <linearGradient
       x1="181.15758"
       y1="393.77765"
       x2="181.0789"
       y2="357.53842"
       id="linearGradient2102"
       xlink:href="#linearGradient3102"
       gradientUnits="userSpaceOnUse"
       gradientTransform="translate(39.5,-84)" />
    <linearGradient
       x1="181.69249"
       y1="453.31204"
       x2="181.69249"
       y2="415.83539"
       id="linearGradient2104"
       xlink:href="#linearGradient3092"
       gradientUnits="userSpaceOnUse"
       gradientTransform="translate(39.5,-84)" />
    <linearGradient
       x1="181.69249"
       y1="453.31204"
       x2="181.69249"
       y2="415.83539"
       id="linearGradient2106"
       xlink:href="#linearGradient3092"
       gradientUnits="userSpaceOnUse"
       gradientTransform="translate(39.5,-84)" />
    <linearGradient
       x1="181.15758"
       y1="393.77765"
       x2="181.0789"
       y2="357.53842"
       id="linearGradient2108"
       xlink:href="#linearGradient3102"
       gradientUnits="userSpaceOnUse"
       gradientTransform="translate(39.5,-84)" />
    <linearGradient
       x1="181.15758"
       y1="393.77765"
       x2="181.0789"
       y2="357.53842"
       id="linearGradient2110"
       xlink:href="#linearGradient3102"
       gradientUnits="userSpaceOnUse"
       gradientTransform="translate(39.5,-84)" />
    <linearGradient
       x1="181.69249"
       y1="453.31204"
       x2="181.69249"
       y2="415.83539"
       id="linearGradient2112"
       xlink:href="#linearGradient3092"
       gradientUnits="userSpaceOnUse"
       gradientTransform="translate(39.5,-84)" />
    <linearGradient
       x1="181.69249"
       y1="453.31204"
       x2="181.69249"
       y2="415.83539"
       id="linearGradient2114"
       xlink:href="#linearGradient3092"
       gradientUnits="userSpaceOnUse"
       gradientTransform="translate(39.5,-84)" />
    <linearGradient
       x1="181.15758"
       y1="393.77765"
       x2="181.0789"
       y2="357.53842"
       id="linearGradient2116"
       xlink:href="#linearGradient3102"
       gradientUnits="userSpaceOnUse"
       gradientTransform="translate(39.5,-84)" />
    <linearGradient
       id="linearGradient2118">
      <stop
         style="stop-color:#009b24;stop-opacity:1"
         offset="0"
         id="stop2120" />
      <stop
         style="stop-color:#ffff00;stop-opacity:0.49803922"
         offset="1"
         id="stop2122" />
    </linearGradient>
    <linearGradient
       id="linearGradient2124">
      <stop
         style="stop-color:#ffc400;stop-opacity:1"
         offset="0"
         id="stop2126" />
      <stop
         style="stop-color:#5affff;stop-opacity:1"
         offset="1"
         id="stop2128" />
    </linearGradient>
    <linearGradient
       x1="181.69249"
       y1="453.31204"
       x2="181.69249"
       y2="415.83539"
       id="linearGradient8106"
       xlink:href="#linearGradient3092"
       gradientUnits="userSpaceOnUse"
       gradientTransform="translate(39.5,-84)" />
    <linearGradient
       x1="181.15758"
       y1="393.77765"
       x2="181.0789"
       y2="357.53842"
       id="linearGradient8104"
       xlink:href="#linearGradient3102"
       gradientUnits="userSpaceOnUse"
       gradientTransform="translate(39.5,-84)" />
    <linearGradient
       x1="181.15758"
       y1="393.77765"
       x2="181.0789"
       y2="357.53842"
       id="linearGradient7055"
       xlink:href="#linearGradient3102"
       gradientUnits="userSpaceOnUse"
       gradientTransform="translate(39.5,-84)" />
    <linearGradient
       x1="181.69249"
       y1="453.31204"
       x2="181.69249"
       y2="415.83539"
       id="linearGradient7052"
       xlink:href="#linearGradient3092"
       gradientUnits="userSpaceOnUse"
       gradientTransform="translate(39.5,-84)" />
    <linearGradient
       x1="181.69249"
       y1="453.31204"
       x2="181.69249"
       y2="415.83539"
       id="linearGradient6652"
       xlink:href="#linearGradient3092"
       gradientUnits="userSpaceOnUse"
       gradientTransform="translate(39.5,-84)" />
    <linearGradient
       x1="181.15758"
       y1="393.77765"
       x2="181.0789"
       y2="357.53842"
       id="linearGradient6650"
       xlink:href="#linearGradient3102"
       gradientUnits="userSpaceOnUse"
       gradientTransform="translate(39.5,-84)" />
    <linearGradient
       id="linearGradient3092">
      <stop
         style="stop-color:#009b24;stop-opacity:1"
         offset="0"
         id="stop3094" />
      <stop
         style="stop-color:#ffff00;stop-opacity:0.49803922"
         offset="1"
         id="stop3100" />
    </linearGradient>
    <linearGradient
       id="linearGradient3102">
      <stop
         style="stop-color:#ffc400;stop-opacity:1"
         offset="0"
         id="stop3104" />
      <stop
         style="stop-color:#5affff;stop-opacity:1"
         offset="1"
         id="stop3106" />
    </linearGradient>
  </defs>
  <g
     transform="translate(-74.285757,201.92353)"
     id="layer1">
    <g
       transform="translate(1288.5715,293.21427)"
       id="g2251">
      <g
         transform="matrix(1,0,0,1.0065531,-1171.4286,-621.5372)"
         id="g2313">
        <path
           d="M -42.857143,398.07648 L -42.857143,125.57648 L 357.14286,125.57648 L 757.14286,125.57648 L 757.14286,398.07648 L 757.14286,670.57648 L 357.14286,670.57648 L -42.857143,670.57648 L -42.857143,398.07648 z "
           style="fill:#fefefe"
           id="path2317" />
        <path
           d="M -42.857143,580.07648 L -42.857143,489.57648 L 357.14286,489.57648 L 757.14286,489.57648 L 757.14286,580.07648 L 757.14286,670.57648 L 357.14286,670.57648 L -42.857143,670.57648 L -42.857143,580.07648 z M -42.857143,216.07648 L -42.857143,125.57648 L 357.14286,125.57648 L 757.14286,125.57648 L 757.14286,216.07648 L 757.14286,306.57648 L 357.14286,306.57648 L -42.857143,306.57648 L -42.857143,216.07648 z "
           style="fill:#003399;fill-opacity:1"
           id="path2315" />
      </g>
    </g>
    <path
       d="M 306.77282,15.198507 L 313.38767,36.825426 L 334.7883,36.827056 L 317.47475,50.194276 L 324.08791,71.821196 L 306.77282,58.455626 L 289.45761,71.821196 L 296.07083,50.194276 L 278.75566,36.827056 L 300.15792,36.825426 L 306.77282,15.198507 z "
       style="fill:#ffcc00;fill-opacity:1;fill-rule:evenodd;stroke-width:0.70693099;stroke-linecap:square"
       id="path2272" />
    <path
       d="M 474.2866,-20.494976 L 480.90145,1.1319434 L 502.30208,1.1335734 L 484.98853,14.500794 L 491.60169,36.127714 L 474.2866,22.762144 L 456.97139,36.127714 L 463.58461,14.500794 L 446.26944,1.1335734 L 467.6717,1.1319434 L 474.2866,-20.494976 z "
       style="fill:#ffcc00;fill-opacity:1;fill-rule:evenodd;stroke-width:0.70693099;stroke-linecap:square"
       id="path2276" />
    <path
       d="M 641.27028,14.67845 L 647.88513,36.305371 L 669.28576,36.307001 L 651.97221,49.674221 L 658.58537,71.301141 L 641.27028,57.935571 L 623.95507,71.301141 L 630.56829,49.674221 L 613.25312,36.307001 L 634.65538,36.305371 L 641.27028,14.67845 z "
       style="fill:#ffcc00;fill-opacity:1;fill-rule:evenodd;stroke-width:0.70693099;stroke-linecap:square"
       id="path2278" />
    <path
       d="M 745.00599,106.19368 L 751.62084,127.8206 L 773.02147,127.82223 L 755.70792,141.18945 L 762.32108,162.81637 L 745.00599,149.4508 L 727.69078,162.81637 L 734.304,141.18945 L 716.98883,127.82223 L 738.39109,127.8206 L 745.00599,106.19368 z "
       style="fill:#ffcc00;fill-opacity:1;fill-rule:evenodd;stroke-width:0.70693099;stroke-linecap:square"
       id="path2280" />
    <path
       d="M 203.58612,106.20451 L 210.20097,127.83143 L 231.6016,127.83306 L 214.28805,141.20028 L 220.90121,162.8272 L 203.58612,149.46163 L 186.27091,162.8272 L 192.88413,141.20028 L 175.56896,127.83306 L 196.97122,127.83143 L 203.58612,106.20451 z "
       style="fill:#ffcc00;fill-opacity:1;fill-rule:evenodd;stroke-width:0.70693099;stroke-linecap:square"
       id="path2289" />
    <use
       transform="matrix(-24.27051,-17.633559,17.633559,-24.27051,866.42862,-341.37953)"
       style="fill:#ffcc00"
       id="use2328"
       x="0"
       y="0"
       width="744.09448"
       height="1052.3622"
       xlink:href="#s" />
  </g>
</svg>
