<?xml version="1.0" encoding="utf-8"?>
<!-- Generator: Adobe Illustrator 24.0.1, SVG Export Plug-In . SVG Version: 6.00 Build 0)  -->
<svg version="1.1" id="Layer_1" xmlns="http://www.w3.org/2000/svg" xmlns:xlink="http://www.w3.org/1999/xlink" x="0px" y="0px"
	 viewBox="0 0 2000 1336" style="enable-background:new 0 0 2000 1336;" xml:space="preserve">
<style type="text/css">
	.st0{fill:#009246;enable-background:new    ;}
	.st1{fill:#CE2B37;enable-background:new    ;}
	.st2{fill:#002395;enable-background:new    ;}
	.st3{fill:#FFFFFF;}
</style>
<g>
	<g>
		<rect id="rect4_2_" x="-2" class="st0" width="2004" height="1336"/>
		<rect id="rect6_4_" x="-2" class="st1" width="2004" height="890.7"/>
		<rect id="rect8_1_" x="-2" class="st2" width="2004" height="445.3"/>
	</g>
	<path id="path3236_2_" class="st3" d="M903.7,811.5l35.8-110.4l-94.2-68.1l116.9,0L998.3,523l36.1,110.1h116.9l-94.2,68.1
		l35.8,110.4l-94.6-68.1L905.9,810L903.7,811.5z"/>
	<path id="path3236_1_" class="st3" d="M450.1,811.5l35.8-110.4l-94.2-68.1l116.9,0L544.7,523l36.1,110.1h116.9l-94.2,68.1
		l35.8,110.4l-94.6-68.1L452.3,810L450.1,811.5z"/>
	<path id="path3236_3_" class="st3" d="M1360.7,811.5l35.8-110.4l-94.2-68.1l116.9,0l36.1-110.1l36.1,110.1h116.9l-94.2,68.1
		l35.8,110.4l-94.6-68.1l-92.4,66.6L1360.7,811.5z"/>
</g>
</svg>
