<?xml version="1.0" encoding="utf-8"?>
<!-- Generator: Adobe Illustrator 27.5.0, SVG Export Plug-In . SVG Version: 6.00 Build 0)  -->
<svg version="1.1" id="Layer_1" xmlns="http://www.w3.org/2000/svg" xmlns:xlink="http://www.w3.org/1999/xlink" x="0px" y="0px"
	 viewBox="0 0 712.5 475" style="enable-background:new 0 0 712.5 475;" xml:space="preserve">
<style type="text/css">
	.st0{fill:#FFFFFF;}
	.st1{fill:#FBDB00;stroke:#000000;stroke-width:0.5;}
	.st2{fill:none;stroke:#000000;stroke-width:0.5;}
	.st3{fill:#1F1A18;stroke:#000000;stroke-width:0.5;stroke-miterlimit:10;}
	.st4{fill:#232863;stroke:#000000;stroke-width:0.5;}
</style>
<rect class="st0" width="712.5" height="475"/>
<g>
	<g>
		<path id="_107087904_00000062872387045576660230000017453340169390973359_" class="st1" d="M394.1,115.1
			c10.1,2.2,14.1-11,16.4-18.5c3.3-10.1,5.3-21.5,6.7-29.1c0.2-1.3,0.8-0.1,0.9-0.5c0.2-1.1,0.6-3.4,0.7-4.2c0.1-0.8-0.9,0-0.8-0.6
			c0.3-2.7,0.5-4.4,0.5-4.4l-5.2-1.9l-0.8,5.1l-4-0.8l1.1-4.9l-5.9-1.2l-1.3,5.3l-4.8-0.6l1.1-5.2l-5-0.5l-1.1,5.3
			c0,0-1.3-0.5-1.4,0c0,1.5-0.3,2.7-0.5,4.7c-0.1,0.5,0.6-0.1,0.7,0.3c0,0-3.4,15.9-3.5,29.6C387.9,96.7,386.4,113.4,394.1,115.1z"
			/>
		<path id="_111870104_00000095320792295209570450000015202062195277508000_" class="st2" d="M416.5,71.6l-25.8-4 M396.8,68.5
			c-4.9,28.8-4.1,42.9-2.7,46.7c0,0,10.3-1.6,15.4-44.7 M410.1,97.9l-21.9-3.8"/>
		<path id="path12352_00000065794921854279972020000005434767163910592917_" class="st3" d="M389.2,77.3l-0.9,8.2l3.5,0.5l1.6-8.5
			L389.2,77.3z"/>
		<path id="path12350_00000119814238491450131360000004292807743619099582_" class="st3" d="M397.9,78.9l-1.5,8.4l7.6,1.2l1.5-8.5
			L397.9,78.9z"/>
		<path id="path12348_00000136398505812162863120000008044849083184900481_" class="st3" d="M410.4,81.1l-1.5,8.1l3.5,0.5l2.1-7.4
			L410.4,81.1z"/>
	</g>
	<g>
		<path id="path12270_00000021095131963308050820000006887712983349556622_" class="st1" d="M315.9,115.1
			c-10.1,2.2-14.1-11-16.4-18.5c-3.3-10.1-5.3-21.5-6.7-29.1c-0.2-1.3-0.8-0.1-0.9-0.5c-0.2-1.1-0.6-3.4-0.7-4.2
			c-0.1-0.8,0.9,0,0.8-0.6c-0.3-2.7-0.5-4.4-0.5-4.4l5.2-1.9l0.8,5.1l4-0.8l-1.1-4.9l5.9-1.1l1.3,5.3l4.8-0.6l-1.1-5.2l5.1-0.5
			l1.1,5.3c0,0,1.3-0.5,1.4,0c0,1.5,0.3,2.7,0.5,4.7c0.1,0.5-0.6-0.1-0.7,0.3c0,0,3.4,15.9,3.5,29.6
			C322.2,96.7,323.6,113.4,315.9,115.1z"/>
		<path id="path12272_00000000921122485044998680000007689103597462070952_" class="st2" d="M293.6,71.6l25.8-4 M313.3,68.5
			c4.9,28.8,4.1,42.9,2.7,46.7c0,0-10.3-1.6-15.4-44.7 M300,97.9l21.9-3.8"/>
		<path id="path12336_00000109744305812207471990000015110365914229110685_" class="st3" d="M320.9,77.3l0.9,8.2l-3.5,0.5l-1.6-8.5
			L320.9,77.3z"/>
		<path id="path12334_00000135682171278894088250000012238930718675234956_" class="st3" d="M312.1,78.9l1.5,8.4l-7.6,1.2l-1.5-8.5
			L312.1,78.9z"/>
		<path id="path12332_00000044896395584417918440000017979581242334939540_" class="st3" d="M299.6,81.1l1.5,8.1l-3.5,0.5l-2.1-7.4
			L299.6,81.1z"/>
	</g>
	<g id="layer1_00000083771908679590537090000014154708399916336555_" transform="translate(-233.33266,-393.48344)">
		<path id="_106797584_00000130630154396371621460000008631899851975193241_" class="st1" d="M575.5,475.4l-4.9,0.6v5.3l-3.5,0.2
			l-0.4-5.3l-5.6,0.1l0.5,5.4l-4,0.3l-0.4-5.8l-4.9,0.7v5.3l-2.9,0.5l-0.6-5.1l-5,0.2l-0.1,5.6l-2.4,0.3l-0.8-5.8l-5.1,0.5l0.8,5.8
			l-2.9,0.3l-1.5-5.3l-4.7,1.6l1,5.3l-3.4,0.9l-1.4-5.3l-5.4,1.3l1.4,5.3l-3.8,1.1l-1.6-5.6l-4.9,1.5l1.1,5.6l-4,1.1l-1.8-6.1
			l-4.7,2.2l6.1,30.1c0,0,0.7,3.7,6.5,3.7l10.1,26.7c0,0,25.3-11.5,64.7-11.9c0.3,0,0.5,0,0.8,0h0.1V481h-0.9H576L575.5,475.4z
			 M601.2,475.4l-0.5,5.6h-11.1h-0.9v55.6h0.1c0.3,0,0.5,0,0.8,0c39.4,0.4,64.7,11.9,64.7,11.9l10.1-26.7c5.7,0,6.5-3.7,6.5-3.7
			L677,488l-4.7-2.2l-1.8,6.1l-4-1.1l1.1-5.6l-4.9-1.5l-1.6,5.6l-3.8-1.1l1.4-5.3l-5.4-1.3l-1.4,5.3l-3.4-0.9l1-5.3l-4.7-1.6
			l-1.5,5.3l-2.9-0.3l0.8-5.8l-5.1-0.5l-0.8,5.8l-2.4-0.3l-0.1-5.6l-5-0.2l-0.6,5.1l-2.9-0.5v-5.3l-5-0.6l-0.4,5.8l-4-0.3l0.5-5.4
			l-5.6-0.1l-0.4,5.3l-3.5-0.2v-5.4L601.2,475.4z"/>
		<path id="path12264_00000178884231417845126860000003075478058792609667_" class="st1" d="M587.1,481.5L587.1,481.5
			c-5,0.1-11.2,0.1-11.2,0.1l0.5,8.7c0,0,6.9-0.1,12-0.1c5.1,0,12,0.1,12,0.1l0.5-8.7c0,0-6.1-0.1-11.2-0.1l0,0c-0.5,0-0.7,0-1.3,0
			C587.8,481.5,587.6,481.5,587.1,481.5z M575.1,481.6l-17.9,1.3l0.6,8.7l17.6-1.3L575.1,481.6z M601.7,481.6l-0.5,8.7l17.7,1.3
			l0.6-8.7C619.5,482.8,601.7,481.6,601.7,481.6z M556.2,482.9l-18.4,2.5l1.2,8.7l17.9-2.4C556.8,491.8,556.2,482.9,556.2,482.9z
			 M620.5,482.9l-0.6,8.7l17.9,2.4l1.2-8.7L620.5,482.9z M536.2,485.7l-18.1,3.7l1.8,8.6l17.7-3.6L536.2,485.7z M640.5,485.7
			l-1.4,8.7l17.7,3.6l1.8-8.6L640.5,485.7z M517.3,489.6c0,0-13.2,3.7-16.3,4.6l1.7,8.6c2.3-0.6,16.3-4.6,16.3-4.6L517.3,489.6z
			 M659.4,489.6l-1.8,8.6c0,0,14,4,16.3,4.6l1.7-8.6C672.6,493.3,659.4,489.6,659.4,489.6z M585.1,491.1l-17.8,0.8l0.4,8.7l17.4-0.6
			C585.2,499.9,585.1,491.1,585.1,491.1z M586,491.1l0.1,8.7c0,0,0.7,0,1,0v0.1c0.5,0,0.7,0,1.3,0c0.5,0,0.8,0,1.3,0v-0.1
			c0.3,0,1,0,1,0l0.1-8.7c0,0-1.3,0-2.3,0.1C587.3,491.1,586,491.1,586,491.1z M591.6,491.1l-0.1,8.7l17.4,0.6l0.4-8.7L591.6,491.1z
			 M566,492l-17.6,1.9l0.9,8.7l17.3-1.8L566,492z M610.7,492l-0.6,8.7l17.3,1.8l0.9-8.7C628.3,493.7,610.7,492,610.7,492z
			 M547.5,493.8l-18.1,3l1.6,8.6l17.4-2.9C548.4,502.6,547.5,493.8,547.5,493.8z M629.2,493.8l-0.9,8.7l17.4,2.9l1.6-8.6
			L629.2,493.8z M528.5,497.1l-17.5,4.2l2,8.5l17-4.2C530.1,505.7,528.5,497.1,528.5,497.1z M648.3,497.1l-1.6,8.6l17,4.2l2-8.5
			L648.3,497.1z M587.1,501L587.1,501c-4.6,0.1-10.3,0.1-10.3,0.1l0.4,8.7c0,0,6.3-0.1,11.1-0.1c4.8,0,11.1,0.1,11.1,0.1l0.4-8.7
			c0,0-5.7,0-10.3-0.1l0,0c-0.5,0-0.7,0-1.3,0C587.8,501,587.6,501,587.1,501z M576,501.2l-17.3,1.2l0.6,8.7l17-1.2L576,501.2z
			 M600.8,501.2l-0.4,8.7l17,1.2l0.6-8.7L600.8,501.2z M510.1,501.6c0,0-3.7,1.2-7.1,2.4l1.7,8.6c3.6-1.2,7.3-2.4,7.3-2.4
			L510.1,501.6z M666.6,501.6l-2,8.5c0,0,3.7,1.2,7.3,2.4l1.7-8.6C670.3,502.7,666.6,501.6,666.6,501.6z M557.7,502.5l-17.3,2.3
			l1.2,8.7l16.9-2.3C558.4,511.2,557.7,502.5,557.7,502.5z M619,502.5l-0.6,8.7l16.9,2.3l1.2-8.7C636.4,504.8,619,502.5,619,502.5z
			 M539.3,505l-17.2,3.5l1.8,8.6l16.7-3.4L539.3,505z M637.4,505l-1.4,8.7l16.7,3.4l1.8-8.6C654.6,508.5,637.4,505,637.4,505z
			 M521.3,508.6c0,0-15.1,4.2-16.3,4.6l1,4.8c0,0,0.4,2.1,3.1,3.2c3.4-0.9,14.1-4,14.1-4L521.3,508.6z M655.5,508.6l-1.8,8.6
			c0,0,10.7,3,14.1,4c2.7-1,3.1-3.2,3.1-3.2l1-4.8C670.6,513,655.5,508.6,655.5,508.6z M585.3,510.7l-17,0.6l0.5,8.7l16.7-0.6
			L585.3,510.7z M586.2,510.7l0.1,8.7c0,0,0.6,0,0.8,0v0.1c0.5,0,0.7,0,1.3,0c0.5,0,0.8,0,1.3,0v-0.1c0.3,0,0.8,0,0.8,0l0.1-8.7
			c0,0-1.2,0-2.2,0.1C587.4,510.7,586.2,510.7,586.2,510.7z M591.4,510.7l-0.1,8.7l16.7,0.6l0.5-8.7L591.4,510.7z M567.5,511.4
			l-17,1.8l0.9,8.7l16.8-1.8L567.5,511.4z M609.3,511.4l-0.6,8.7l16.8,1.8l0.9-8.7L609.3,511.4z M549.5,513.2L533,516l1.6,8.7
			l16-2.7L549.5,513.2z M627.1,513.2l-0.9,8.7l16,2.7l1.6-8.7L627.1,513.2z M532,516.2l-16.6,4l2,8.5l16.2-3.9
			C533.7,524.9,532,516.2,532,516.2z M644.7,516.2l-1.6,8.7l16.2,3.9l2-8.5L644.7,516.2z M514.6,520.4c0,0-2.3,0.8-3.7,1.2
			c0.5,0.1,0.9,0.1,1.4,0.1l2.9,7.7c0.2-0.1,1.4-0.5,1.4-0.5L514.6,520.4z M662.1,520.4l-2,8.5c0,0,1.1,0.4,1.4,0.5l2.9-7.7
			c0.5,0,1,0,1.4-0.1C664.5,521.3,662.1,520.4,662.1,520.4z M587.1,520.5L587.1,520.5c-4.2,0.1-9.3,0.1-9.3,0.1l0.4,8.7
			c0,0,5.9-0.1,10.2-0.1c4.3,0,10.2,0.1,10.2,0.1l0.4-8.7c0,0-5.1,0-9.3-0.1l0,0c-0.5,0-0.7,0-1.3,0
			C587.8,520.5,587.6,520.5,587.1,520.5z M576.9,520.6l-16.8,1.2l0.7,8.7l16.5-1.2C577.2,529.5,576.9,520.6,576.9,520.6z
			 M599.9,520.6l-0.4,8.7l16.5,1.2l0.7-8.7L599.9,520.6z M559.2,521.9l-16.3,2.2l1.2,8.7l15.8-2.2
			C559.8,530.7,559.2,521.9,559.2,521.9z M617.6,521.9l-0.7,8.7l15.8,2.2l1.2-8.7L617.6,521.9z M542.4,524.2l-16.3,3.3l1.8,8.6
			l15.8-3.2L542.4,524.2z M634.4,524.2l-1.4,8.7l15.8,3.2l1.8-8.6L634.4,524.2z M525.3,527.7c0,0-5.1,1.5-9.7,2.7l3.1,8.2
			c4.2-1.2,8.4-2.4,8.4-2.4L525.3,527.7z M651.4,527.7l-1.8,8.6c0,0,4.2,1.2,8.4,2.4l3.1-8.2C656.5,529.2,651.4,527.7,651.4,527.7z
			 M585.4,530.2l-16.3,0.6c0,0,0.2,3.2,0.3,5.8c-0.2-2.6-0.5-5.8-0.5-5.8l-16.4,1.8c0,0,0.5,5.3,0.7,7.3c4.9-0.9,10.3-1.6,16.3-2.3
			c5-0.5,10.4-0.8,16-0.9C585.4,534.2,585.4,530.2,585.4,530.2z M586.3,530.2c0,0,0,4,0,6.4c0.5,0,1,0,1.5,0c0.4,0,0.6,0,1,0
			c0.5,0,1,0,1.5,0c0-2.5,0-6.4,0-6.4s-1.1,0-2,0.1C587.4,530.3,586.3,530.2,586.3,530.2z M591.3,530.2c0,0,0,4,0,6.4
			c5.7,0.1,11,0.4,16,0.9c5.9,0.5,11.3,1.4,16.3,2.3c0.2-2,0.7-7.3,0.7-7.3l-16.4-1.8c0,0-0.3,3.2-0.5,5.8c0.1-2.6,0.3-5.8,0.3-5.8
			C607.6,530.9,591.3,530.2,591.3,530.2z M551.6,532.7l-15.1,2.6c0,0,1.3,7,1.4,8c4.1-1.1,8.9-2.2,14.4-3.2
			C552.1,538,551.6,532.7,551.6,532.7z M625.1,532.7c0,0-0.5,5.3-0.7,7.4c5.5,1,10.3,2.1,14.4,3.2c0.2-1,1.4-8,1.4-8L625.1,532.7z
			 M535.6,535.4l-15.7,3.8c0,0,1.2,5,1.6,7l0.5,1.5c0.2,0,3.4-0.8,6.7-1.6c2.2-0.8,5-1.6,8.2-2.6
			C536.9,542.6,535.6,535.4,535.6,535.4z M641.1,535.4c0,0-1.3,7.1-1.4,8.1c3.3,0.9,6,1.8,8.2,2.6c3.3,0.8,6.6,1.6,6.7,1.6l0.5-1.5
			c0.5-2,1.6-7,1.6-7L641.1,535.4z"/>
		<path id="_107079960_00000119083331441046639630000007832076510561440907_" class="st1" d="M666.2,513.6
			c9.5,4.2,15.9-8.1,19.8-15.2c5.1-9.4,9.1-20.2,11.8-27.5c0.5-1.3,0.9,0,1.1-0.5c0.3-0.9,1.3-3.2,1.5-4c0.2-0.8-1.1-0.2-0.8-0.8
			c0.8-2.7,1.3-4.2,1.3-4.2l-4.9-2.9l-1.8,4.8l-3.6-1.6l2-4.7l-5.6-2.1l-2.3,5l-4.6-1.6l2-4.8l-4.9-1.5l-2.1,5.1
			c0,0-1.2-0.8-1.3-0.1c-0.3,1.4-0.8,2.5-1.4,4.5c-0.1,0.5,0.7,0,0.7,0.5c0,0-6.3,14.9-8.9,28.8
			C663.4,494.2,658.8,510.4,666.2,513.6L666.2,513.6z"/>
		<path id="_98885984_00000183933566470739804020000015405273219958802577_" class="st2" d="M696.3,474.8l-24.9-9.1 M677.4,467.8
			c-10.2,27.8-11.9,41.9-11.2,45.7c0,0,10.5,0.5,23.5-41.4 M685.2,499.6l-21-7.9"/>
		<path id="use11807_00000117636798036795771810000016359366264210052252_" class="st1" d="M618.5,499.4c-5.8-0.6-5,7.3-5.3,11.3
			l8.5,0.9C622.1,507.5,624.2,500,618.5,499.4z M618.5,499.4c-5.8-0.6-5,7.3-5.3,11.3l8.5,0.9C622.1,507.5,624.2,500,618.5,499.4z"
			/>
		<path id="use11809_00000139975803184675677740000011068340437299053718_" class="st1" d="M640.8,502.7c-5.7-1-5.3,6.9-6,10.9
			l8.4,1.5C643.8,511,646.5,503.7,640.8,502.7z M640.8,502.7c-5.7-1-5.3,6.9-6,10.9l8.4,1.5C643.8,511,646.5,503.7,640.8,502.7z"/>
		<path id="use11811_00000101820869082921976890000012230483307085455504_" class="st1" d="M657.9,506.4c-5.7-1.4-5.8,6.6-6.6,10.4
			l8.3,2C660.5,515,663.6,507.8,657.9,506.4z M657.9,506.4c-5.7-1.4-5.8,6.6-6.6,10.4l8.3,2C660.5,515,663.6,507.8,657.9,506.4z"/>
		<path id="path12266_00000074437573417533080780000003545372080773121192_" class="st1" d="M510.5,513.6
			c-9.5,4.2-15.9-8.1-19.8-15.2c-5.1-9.4-9.2-20.2-11.9-27.5c-0.5-1.3-0.9,0-1.1-0.5c-0.3-0.9-1.3-3.2-1.5-4
			c-0.2-0.8,1.1-0.2,0.8-0.8c-0.8-2.7-1.3-4.2-1.3-4.2l4.9-2.9l1.8,4.8l3.6-1.6l-2-4.7l5.6-2.1l2.3,5.1l4.6-1.6l-2-4.8l5-1.5
			l2.1,5.1c0,0,1.2-0.8,1.3-0.1c0.3,1.4,0.8,2.5,1.4,4.5c0.1,0.5-0.7,0-0.7,0.5c0,0,6.3,14.9,8.9,28.8
			C513.3,494.2,517.9,510.4,510.5,513.6L510.5,513.6z"/>
		<path id="path12268_00000125581129985360889380000017901506218290905013_" class="st2" d="M480.4,474.8l24.9-9.1 M499.3,467.8
			c10.2,27.8,11.9,41.9,11.2,45.7c0,0-10.5,0.5-23.5-41.4 M491.6,499.6l21-7.9"/>
		<path id="path12282_00000106113407852911081580000002261116749053760907_" class="st1" d="M577,498.2c5.8-0.3,4.6,7.6,4.8,11.5
			l-8.5,0.4C573.2,506.1,571.3,498.5,577,498.2z M577,498.2c5.8-0.3,4.6,7.6,4.8,11.5l-8.5,0.4C573.2,506.1,571.3,498.5,577,498.2z"
			/>
		<path id="path12284_00000071554908653074818360000009810452387025676220_" class="st1" d="M558.2,499.4c5.8-0.6,5,7.3,5.3,11.3
			l-8.5,0.9C554.7,507.5,552.5,500,558.2,499.4z M558.2,499.4c5.8-0.6,5,7.3,5.3,11.3l-8.5,0.9C554.7,507.5,552.5,500,558.2,499.4z"
			/>
		<path id="path12286_00000092423132113504928900000015166468178389319346_" class="st1" d="M536,502.7c5.7-1,5.3,6.9,6,10.9
			l-8.4,1.5C532.8,511,530.2,503.7,536,502.7z M536,502.7c5.7-1,5.3,6.9,6,10.9l-8.4,1.5C532.8,511,530.2,503.7,536,502.7z"/>
		<path id="path12288_00000122714864695674330440000015442590496625704329_" class="st1" d="M518.8,506.4c5.7-1.4,5.8,6.6,6.6,10.4
			l-8.3,2C516.2,515,513.2,507.8,518.8,506.4z M518.8,506.4c5.7-1.4,5.8,6.6,6.6,10.4l-8.3,2C516.2,515,513.2,507.8,518.8,506.4z"/>
		<path id="path11583_00000113330006046545280250000015562577657131925155_" class="st1" d="M582.6,509.9c0,0,0.5,2.7-1,3.8
			c-3.3,2.5-3.6,6.7-4.3,8.6c-0.7,1.9-1.1,2.6-1.1,3.7c0,1.1,0.4,2.6,1.1,4c0.7,1.5,0.7,5.6,1.4,7.4h2.3h6.2h2.5h6.2h2.3
			c0.7-1.9,0.7-5.9,1.4-7.4c0.7-1.5,1.1-2.9,1.1-4c0-1.2-0.4-1.9-1.1-3.7c-0.7-1.9-1.2-6.1-4.3-8.6c-1.4-1.1-1-3.8-1-3.8H590h-2.5
			H582.6z"/>
		<path id="_107099936_00000123421524542352924930000017901296083337233300_" class="st1" d="M586.5,438.5l-0.4,5.4l-4.7,0.2
			l0.1-5.3l-5.1,0.5l-0.2,5.3c0,0-1.3-0.2-1.3,0.3c0.2,1.5,0.1,2.7,0.3,4.7c0.1,0.3,0.6-0.3,0.8,0.1c0,0-0.6,16.1,1.7,29.8
			c0.5,3.5,2,20.2,9.8,20.6c0.1,0,1.3,0,1.4,0c7.9-0.3,9.4-16.9,9.8-20.6c2.3-13.7,1.7-29.8,1.7-29.8c0.2-0.5,0.7,0.2,0.8-0.1
			c0.2-2,0.1-3.2,0.3-4.7c0-0.5-1.3-0.3-1.3-0.3l-0.2-5.3l-5.1-0.5l0.1,5.3l-4.7-0.2l-0.4-5.4h-0.6h-2.5H586.5L586.5,438.5z"/>
		<path id="path12346_00000031929047623059931140000017679015764849352123_" class="st3" d="M668.2,475.3l-2.3,8l3.4,1.2l3-8.1
			L668.2,475.3z"/>
		<path id="path12344_00000123414060340549805300000007025026472375308726_" class="st3" d="M676.5,478.4l-3,8l7.3,2.7l3.1-8.1
			L676.5,478.4z"/>
		<path id="_111362344_00000078760924440925429910000013783260056042862491_" class="st3" d="M688.7,483.1l-3.2,7.7l3.4,1.1l3.4-7
			L688.7,483.1z"/>
		<path id="path12330_00000091700802704445426490000006753531843029649040_" class="st3" d="M508.6,475.3l2.3,8l-3.4,1.2l-3-8.1
			L508.6,475.3z"/>
		<path id="path12328_00000096775620274503618870000003229929674673337227_" class="st3" d="M500.2,478.4l3,8l-7.3,2.7l-3.1-8.1
			L500.2,478.4z"/>
		<path id="path12278_00000020357487632125433050000007834285537579876262_" class="st3" d="M488.1,483.1l3.2,7.7l-3.4,1.1l-3.4-7
			L488.1,483.1z"/>
		<path id="path12356_00000146500137677182164750000005722250624263752610_" class="st3" d="M596.4,463.6l0.1,8.6l3.5,0.2l0.5-8.3
			L596.4,463.6z"/>
		<path id="path12354_00000094592496727093445770000006853040931093160893_" class="st3" d="M587.1,463.8L587.1,463.8l-2.1,0.1
			l-0.1,8.6l3.4-0.1l3.4,0.1l-0.1-8.6l-2.1-0.1v-0.1h-1.3L587.1,463.8z"/>
		<path id="path12340_00000054955965888331093970000008557857093998401964_" class="st3" d="M580.4,463.6l-0.1,8.6l-3.5,0.2
			l-0.5-8.3L580.4,463.6z"/>
		<path id="use11805_00000130621018817784414490000001731736109197684905_" class="st1" d="M599.6,498.2c-5.8-0.3-4.6,7.6-4.8,11.5
			l8.5,0.4C603.6,506.1,605.4,498.5,599.6,498.2z M599.6,498.2c-5.8-0.3-4.6,7.6-4.8,11.5l8.5,0.4
			C603.6,506.1,605.4,498.5,599.6,498.2z"/>
		<path id="use11797_00000085238094794587058020000017156033661005049007_" class="st1" d="M588.4,519c-9.1,0-6.7,12.2-6.7,18.5
			h13.4C595.1,531.1,597.4,519,588.4,519z M588.4,519c-9.1,0-6.7,12.2-6.7,18.5h13.4C595.1,531.1,597.4,519,588.4,519z"/>
		<path id="_344049200_00000015328834484586511630000006495751834340384384_" class="st2" d="M588.4,500.3c6-9.1,5.8-33.2,6.1-46.4
			h-12.3C582.5,467.3,582.6,490.9,588.4,500.3z M582.3,454l-6.2,0.2 M594.5,454l6.2,0.1 M577.9,481h20.9"/>
	</g>
</g>
<g>
	<g id="layer1_00000000920990181147135000000003500257970164412070_" transform="translate(-1.5,265.53125)">
		<path id="path1411_00000073713387176905700920000018233852320676229801_" class="st4" d="M356.5,154.5c0,0-112.5-44.4-112.5-157.4
			s0-102.3,0-102.3h225V-2.9C469,110,356.5,154.5,356.5,154.5z"/>
	</g>
	<ellipse class="st1" cx="354.4" cy="242.8" rx="15.4" ry="16.2"/>
	<ellipse class="st1" cx="354.4" cy="286" rx="15.4" ry="16.2"/>
	<ellipse class="st1" cx="395.5" cy="242.8" rx="15.4" ry="16.2"/>
	<ellipse class="st1" cx="395.5" cy="286" rx="15.4" ry="16.2"/>
	<ellipse class="st1" cx="313.3" cy="242.8" rx="15.4" ry="16.2"/>
	<ellipse class="st1" cx="313.3" cy="286" rx="15.4" ry="16.2"/>
	<ellipse class="st1" cx="354.4" cy="329.1" rx="15.4" ry="16.2"/>
	<ellipse class="st1" cx="395.5" cy="329.1" rx="15.4" ry="16.2"/>
	<ellipse class="st1" cx="313.3" cy="329.1" rx="15.4" ry="16.2"/>
	<ellipse class="st1" cx="354.4" cy="372.3" rx="15.4" ry="16.2"/>
	<ellipse class="st1" cx="354.4" cy="199.7" rx="15.4" ry="16.2"/>
	<ellipse class="st1" cx="395.5" cy="199.7" rx="15.4" ry="16.2"/>
	<ellipse class="st1" cx="313.3" cy="199.7" rx="15.4" ry="16.2"/>
</g>
</svg>
